<svg width="46" height="34" viewBox="0 0 46 34" fill="none" xmlns="http://www.w3.org/2000/svg">
<ellipse cx="23" cy="25" rx="7" ry="7" fill="#FFC700" stroke="black" stroke-width="3"/>
<ellipse cx="13" cy="11.0001" rx="7" ry="7" fill="#FFC700" stroke="black" stroke-width="3"/>
<ellipse cx="15" cy="19" rx="7" ry="7" fill="#FFC700" stroke="black" stroke-width="3"/>
<ellipse cx="25" cy="19" rx="7" ry="7" fill="#FFC700" stroke="black" stroke-width="3"/>
<ellipse cx="33" cy="11.0001" rx="7" ry="7" fill="#FFC700" stroke="black" stroke-width="3"/>
<ellipse cx="37" cy="19" rx="7" ry="7" fill="#FFC700" stroke="black" stroke-width="3"/>
<ellipse cx="9" cy="19" rx="7" ry="7" fill="#FFC700" stroke="black" stroke-width="3"/>
<ellipse cx="13" cy="25" rx="7" ry="7" fill="#FFC700" stroke="black" stroke-width="3"/>
<ellipse cx="33" cy="25" rx="7" ry="7" fill="#FFC700" stroke="black" stroke-width="3"/>
<ellipse cx="29" cy="15" rx="7" ry="7" fill="#FFC700" stroke="black" stroke-width="3"/>
<ellipse cx="23" cy="9" rx="7" ry="7" fill="#FFC700" stroke="black" stroke-width="3"/>
<circle cx="23" cy="9" r="5" fill="#FFC700" stroke="#FFC700"/>
<circle cx="13" cy="11" r="5" fill="#FFC700" stroke="#FFC700"/>
<circle cx="9" cy="19" r="5" fill="#FFC700" stroke="#FFC700"/>
<circle cx="13" cy="25" r="5" fill="#FFC700" stroke="#FFC700"/>
<circle cx="23" cy="25" r="5" fill="#FFC700" stroke="#FFC700"/>
<circle cx="33" cy="25" r="5" fill="#FFC700" stroke="#FFC700"/>
<circle cx="37" cy="19" r="5" fill="#FFC700" stroke="#FFC700"/>
<circle cx="33" cy="11" r="5" fill="#FFC700" stroke="#FFC700"/>
<circle cx="18.5" cy="17.5" r="5.5" fill="#FFC700" stroke="#FFC700"/>
<circle cx="26" cy="17" r="6" fill="#FFC700" stroke="#FFC700"/>
</svg>
