<svg width="44" height="32" viewBox="0 0 44 32" fill="none" xmlns="http://www.w3.org/2000/svg">
<ellipse cx="22" cy="24" rx="7" ry="7" fill="#FFC700" stroke="black"/>
<ellipse cx="12" cy="10.0001" rx="7" ry="7" fill="#FFC700" stroke="black"/>
<ellipse cx="14" cy="18" rx="7" ry="7" fill="#FFC700" stroke="black"/>
<ellipse cx="24" cy="18" rx="7" ry="7" fill="#FFC700" stroke="black"/>
<ellipse cx="32" cy="10.0001" rx="7" ry="7" fill="#FFC700" stroke="black"/>
<ellipse cx="36" cy="18" rx="7" ry="7" fill="#FFC700" stroke="black"/>
<ellipse cx="8" cy="18" rx="7" ry="7" fill="#FFC700" stroke="black"/>
<ellipse cx="12" cy="24" rx="7" ry="7" fill="#FFC700" stroke="black"/>
<ellipse cx="32" cy="24" rx="7" ry="7" fill="#FFC700" stroke="black"/>
<ellipse cx="28" cy="14" rx="7" ry="7" fill="#FFC700" stroke="black"/>
<ellipse cx="22" cy="8" rx="7" ry="7" fill="#FFC700" stroke="black"/>
<circle cx="12" cy="10" r="6" fill="#FFC700" stroke="#FFC700"/>
<circle cx="8" cy="18" r="6" fill="#FFC700" stroke="#FFC700"/>
<circle cx="22" cy="24" r="6" fill="#FFC700" stroke="#FFC700"/>
<circle cx="12" cy="24" r="6" fill="#FFC700" stroke="#FFC700"/>
<circle cx="32" cy="24" r="6" fill="#FFC700" stroke="#FFC700"/>
<circle cx="19" cy="16" r="6" fill="#FFC700" stroke="#FFC700"/>
<circle cx="36" cy="18" r="6" fill="#FFC700" stroke="#FFC700"/>
<circle cx="32" cy="10" r="6" fill="#FFC700" stroke="#FFC700"/>
<circle cx="26" cy="15" r="6" fill="#FFC700" stroke="#FFC700"/>
</svg>
